<?xml version="1.0" encoding="UTF-8" standalone="no"?>
<!-- Created with Inkscape (http://www.inkscape.org/), XmlHighlighting, XmlHighlighting, XmlHighlighting, XmlHighlighting, XmlHighlighting, CheckTagEmptyBody, XmlHighlighting, XmlHighlighting, XmlHighlighting, XmlHighlighting, XmlHighlighting -->

<!--suppress ALL -->
<svg
   xmlns:dc="http://purl.org/dc/elements/1.1/"
   xmlns:cc="http://creativecommons.org/ns#"
   xmlns:rdf="http://www.w3.org/1999/02/22-rdf-syntax-ns#"
   xmlns:svg="http://www.w3.org/2000/svg"
   xmlns="http://www.w3.org/2000/svg"
   xmlns:sodipodi="http://sodipodi.sourceforge.net/DTD/sodipodi-0.dtd"
   xmlns:inkscape="http://www.inkscape.org/namespaces/inkscape"
   width="210mm"
   height="297mm"
   viewBox="0 0 744.09448819 1052.3622047"
   id="svg2"
   version="1.1"
   inkscape:version="0.91 r13725"
   sodipodi:docname="ic_launcher_vector.svg"
   inkscape:export-filename="/home/douglimar/workspace/AndroidStudioProjects/ScreenResolution/icons/ic_launcher_vector.png"
   inkscape:export-xdpi="90"
   inkscape:export-ydpi="90">
  <defs
     id="defs4" />
  <sodipodi:namedview
     id="base"
     pagecolor="#ffffff"
     bordercolor="#666666"
     borderopacity="1.0"
     inkscape:pageopacity="0.0"
     inkscape:pageshadow="2"
     inkscape:zoom="0.35355339"
     inkscape:cx="101.87758"
     inkscape:cy="254.1084"
     inkscape:document-units="px"
     inkscape:current-layer="layer1"
     showgrid="true"
     inkscape:window-width="1319"
     inkscape:window-height="744"
     inkscape:window-x="47"
     inkscape:window-y="24"
     inkscape:window-maximized="1">
    <inkscape:grid
       type="xygrid"
       id="grid3418" />
  </sodipodi:namedview>
  <metadata
     id="metadata7">
    <rdf:RDF>
      <cc:Work
         rdf:about="">
        <dc:format>image/svg+xml</dc:format>
        <dc:type
           rdf:resource="http://purl.org/dc/dcmitype/StillImage" />
        <dc:title></dc:title>
      </cc:Work>
    </rdf:RDF>
  </metadata>
  <g
     inkscape:label="Camada 1"
     inkscape:groupmode="layer"
     id="layer1">
    <rect
       style="fill:#000000;fill-rule:evenodd;stroke:#000000;stroke-width:1px;stroke-linecap:butt;stroke-linejoin:miter;stroke-opacity:1"
       id="rect3336"
       width="462.85715"
       height="748.57141"
       x="200.81223"
       y="206.96991"
       ry="32.857143" />
    <rect
       style="fill:#ffffff;fill-rule:evenodd;stroke:#000000;stroke-width:0.77912796px;stroke-linecap:butt;stroke-linejoin:miter;stroke-opacity:1"
       id="rect3336-3"
       width="361.06708"
       height="582.5188"
       x="250.13033"
       y="271.4187" />
    <rect
       style="fill:#800000"
       id="rect3401"
       width="32.324883"
       height="537.78113"
       x="549.39459"
       y="292.93201" />
    <rect
       style="fill:#800000"
       id="rect3401-6"
       width="32.32465"
       height="310.68332"
       x="793.94415"
       y="-570.15479"
       transform="matrix(-0.00268611,0.99999639,-0.9999677,-0.00803695,0,0)" />
    <rect
       style="fill:#ffffff"
       id="rect3420"
       width="191.51268"
       height="454.28574"
       x="124.04061"
       y="387.50363" />
    <path
       inkscape:connector-curvature="0"
       d="m 396.96086,577.8289 -15.20001,0 c -12.39999,0 -22.79998,-10.7 -22.79998,-23.4 0,-6.4 2.70001,-12.2 7.49999,-16.5 l 9.79999,-9.6 c 9.70001,-9.6 9.70001,-25.3 0,-34.9 l -22.29998,-22.1 c -4.4,-4.4 -10.9,-7 -17.5,-7 -6.6,0 -13,2.6 -17.5,7 l -9.4,9.4 c -4.5,5 -10.5,7.7 -17,7.7 -12.79999,0 -23.5,-10.4 -23.5,-22.7 l 0,-15.3 c 0,-13.5 -10.89999,-25.1 -24.5,-25.1 l -30.39999,0 c -13.60001,0 -24.4,11.5 -24.4,25.1 l 0,15.2 c 0,12.3 -10.7,22.7 -23.49999,22.7 -6.4,0 -12.3,-2.7 -16.6,-7.4 l -9.7,-9.6 c -4.4,-4.5 -10.9,-7 -17.5,-7 -6.59999,0 -12.99999,2.6 -17.49999,7 l -22.5,22 c -9.6,9.6 -9.6,25.3 0,34.8 l 9.4,9.4 c 5,4.5 7.79999,10.5 7.79999,16.9 0,12.8 -10.39999,23.4 -22.79999,23.4 l -15.2,0 c -13.7,0 -25.2,10.7 -25.2,24.3 l 0,15.2 0,15.2 c 0,13.5 11.5,24.3 25.2,24.3 l 15.2,0 c 12.4,0 22.79999,10.7 22.79999,23.4 0,6.4 -2.79999,12.4 -7.79999,16.9 l -9.4,9.3 c -9.6,9.6 -9.6,25.3 0,34.8 l 22.3,22.2 c 4.4,4.5 10.9,7 17.49999,7 6.6,0 13,-2.6 17.5,-7 l 9.7,-9.6 c 4.19999,-4.7 10.19999,-7.4 16.59999,-7.4 12.79999,0 23.49999,10.4 23.49999,22.7 l 0,15.2 c 0,13.5 10.8,25.1 24.5,25.1 l 30.4,0 c 13.6,0 24.4,-11.5 24.4,-25.1 l 0,-15.2 c 0,-12.3 10.7,-22.7 23.5,-22.7 6.40002,0 12.40002,2.8 17.00001,7.7 l 9.4,9.4 c 4.5,4.4 10.89999,7 17.5,7 6.6,0 13,-2.6 17.5,-7 l 22.29999,-22.2 c 9.6,-9.6 9.6,-25.3 0,-34.9 l -9.80002,-9.6 c -4.79998,-4.3 -7.49996,-10.2 -7.49996,-16.5 0,-12.8 10.39998,-23.4 22.79998,-23.4 l 15.19998,0 c 13.60001,0 23.30002,-10.7 23.30002,-24.3 l 0,-15.3 0,-15.2 c 0.19998,-13.6 -9.5,-24.3 -23.10001,-24.3 z m -87.69997,39.5 0,0 c 0,44.1 -35.70002,80 -80.00002,80 -44.3,0 -79.99999,-35.9 -79.99999,-80 l 0,0 0,0 c 0,-44.1 35.69999,-80 79.99999,-80 44.3,0 80.00002,35.9 80.00002,80 l 0,0 z"
       id="path3-7"
       style="fill:#808080" />
    <path
       inkscape:connector-curvature="0"
       d="m 392.96086,567.8289 -15.2,0 c -12.4,0 -22.79998,-10.7 -22.79998,-23.4 0,-6.4 2.7,-12.2 7.49998,-16.5 l 9.8,-9.6 c 9.7,-9.6 9.7,-25.3 0,-34.9 l -22.29998,-22.1 c -4.4,-4.4 -10.9,-7 -17.5,-7 -6.6,0 -13,2.6 -17.5,7 l -9.4,9.4 c -4.5,5 -10.5,7.7 -17,7.7 -12.8,0 -23.5,-10.4 -23.5,-22.7 l 0,-15.3 c 0,-13.5 -10.9,-25.1 -24.5,-25.1 l -30.4,0 c -13.6,0 -24.4,11.5 -24.4,25.1 l 0,15.2 c 0,12.3 -10.7,22.7 -23.49999,22.7 -6.4,0 -12.3,-2.7 -16.6,-7.4 l -9.7,-9.6 c -4.4,-4.5 -10.9,-7 -17.5,-7 -6.59999,0 -12.99999,2.6 -17.49999,7 l -22.499995,22 c -9.6,9.6 -9.6,25.3 0,34.8 l 9.4,9.4 c 5,4.5 7.79999,10.5 7.79999,16.9 0,12.8 -10.39999,23.4 -22.79999,23.4 l -15.2,0 c -13.7,0 -25.2,10.7 -25.2,24.3 l 0,15.2 0,15.2 c 0,13.5 11.5,24.3 25.2,24.3 l 15.2,0 c 12.4,0 22.79999,10.7 22.79999,23.4 0,6.4 -2.79999,12.4 -7.79999,16.9 l -9.4,9.3 c -9.6,9.6 -9.6,25.3 0,34.8 l 22.299995,22.2 c 4.4,4.5 10.9,7 17.49999,7 6.6,0 13,-2.6 17.5,-7 l 9.7,-9.6 c 4.2,-4.7 10.2,-7.4 16.6,-7.4 12.79999,0 23.49999,10.4 23.49999,22.7 l 0,15.2 c 0,13.5 10.8,25.1 24.5,25.1 l 30.4,0 c 13.6,0 24.4,-11.5 24.4,-25.1 l 0,-15.2 c 0,-12.3 10.7,-22.7 23.5,-22.7 6.4,0 12.4,2.8 17,7.7 l 9.4,9.4 c 4.5,4.4 10.9,7 17.5,7 6.6,0 13,-2.6 17.5,-7 l 22.29998,-22.2 c 9.6,-9.6 9.6,-25.3 0,-34.9 l -9.8,-9.6 c -4.79998,-4.3 -7.49998,-10.2 -7.49998,-16.5 0,-12.8 10.39998,-23.4 22.79998,-23.4 l 15.2,0 c 13.6,0 23.3,-10.7 23.3,-24.3 l 0,-15.3 0,-15.2 c 0.2,-13.6 -9.5,-24.3 -23.1,-24.3 z m -87.69998,39.5 0,0 c 0,44.1 -35.7,80 -80,80 -44.3,0 -79.99999,-35.9 -79.99999,-80 l 0,0 0,0 c 0,-44.1 35.69999,-80 79.99999,-80 44.3,0 80,35.9 80,80 l 0,0 z"
       id="path3"
       style="fill:#008080" />
  </g>
</svg>
