<?xml version="1.0" encoding="UTF-8" standalone="no"?>
<!-- Created with Inkscape (http://www.inkscape.org/) -->

<!--suppress ALL -->
<svg
   xmlns:dc="http://purl.org/dc/elements/1.1/"
   xmlns:cc="http://creativecommons.org/ns#"
   xmlns:rdf="http://www.w3.org/1999/02/22-rdf-syntax-ns#"
   xmlns:svg="http://www.w3.org/2000/svg"
   xmlns="http://www.w3.org/2000/svg"
   xmlns:sodipodi="http://sodipodi.sourceforge.net/DTD/sodipodi-0.dtd"
   xmlns:inkscape="http://www.inkscape.org/namespaces/inkscape"
   width="210mm"
   height="297mm"
   viewBox="0 0 744.09448819 1052.3622047"
   id="svg2"
   version="1.1"
   inkscape:version="0.91 r13725"
   sodipodi:docname="icone_vector.svg">
  <defs
     id="defs4" />
  <sodipodi:namedview
     id="base"
     pagecolor="#ffffff"
     bordercolor="#666666"
     borderopacity="1.0"
     inkscape:pageopacity="0.0"
     inkscape:pageshadow="2"
     inkscape:zoom="1.1674081"
     inkscape:cx="190.70507"
     inkscape:cy="542.78829"
     inkscape:document-units="px"
     inkscape:current-layer="layer1"
     showgrid="false"
     inkscape:window-width="1319"
     inkscape:window-height="744"
     inkscape:window-x="47"
     inkscape:window-y="24"
     inkscape:window-maximized="1" />
  <metadata
     id="metadata7">
    <rdf:RDF>
      <cc:Work
         rdf:about="">
        <dc:format>image/svg+xml</dc:format>
        <dc:type
           rdf:resource="http://purl.org/dc/dcmitype/StillImage" />
        <dc:title />
      </cc:Work>
    </rdf:RDF>
  </metadata>
  <g
     inkscape:label="Camada 1"
     inkscape:groupmode="layer"
     id="layer1">
    <rect
       style="fill:#000000;fill-rule:evenodd;stroke:#000000;stroke-width:1.0335269px;stroke-linecap:butt;stroke-linejoin:miter;stroke-opacity:1"
       id="rect8068"
       width="401.81827"
       height="639.95264"
       x="208.38434"
       y="132.37151"
       ry="35.77375" />
    <rect
       style="fill:#ffffff;fill-rule:evenodd;stroke:#000000;stroke-width:0.77371126px;stroke-linecap:butt;stroke-linejoin:miter;stroke-opacity:1"
       id="rect8068-3"
       width="310.91724"
       height="463.49701"
       x="252.90462"
       y="220.61423"
       ry="0" />
    <rect
       style="fill:#b3b3b3;fill-rule:evenodd;stroke:none;stroke-width:1px;stroke-linecap:butt;stroke-linejoin:miter;stroke-opacity:1"
       id="rect12617"
       width="267.90118"
       height="44.650196"
       x="274.49133"
       y="348.28415"
       ry="0"
       rx="0" />
    <rect
       style="fill:#b3b3b3;fill-rule:evenodd;stroke:none;stroke-width:1px;stroke-linecap:butt;stroke-linejoin:miter;stroke-opacity:1"
       id="rect12617-2"
       width="242.78545"
       height="44.650196"
       x="299.60706"
       y="402.43536"
       ry="0"
       rx="0" />
    <rect
       style="fill:#b3b3b3;fill-rule:evenodd;stroke:none;stroke-width:1px;stroke-linecap:butt;stroke-linejoin:miter;stroke-opacity:1"
       id="rect12617-8"
       width="267.90118"
       height="44.650196"
       x="274.49133"
       y="294.20566"
       ry="0" />
    <rect
       style="fill:#b3b3b3;fill-rule:evenodd;stroke:none;stroke-width:1px;stroke-linecap:butt;stroke-linejoin:miter;stroke-opacity:1"
       id="rect12617-23"
       width="267.90118"
       height="44.650196"
       x="274.49133"
       y="239.77527"
       ry="0" />
    <rect
       style="fill:#b3b3b3;fill-rule:evenodd;stroke:none;stroke-width:1px;stroke-linecap:butt;stroke-linejoin:miter;stroke-opacity:1"
       id="rect12617-4"
       width="267.90118"
       height="44.650196"
       x="274.49133"
       y="564.58081"
       ry="0" />
    <rect
       style="fill:#b3b3b3;fill-rule:evenodd;stroke:none;stroke-width:1px;stroke-linecap:butt;stroke-linejoin:miter;stroke-opacity:1"
       id="rect12617-2-3"
       width="267.90118"
       height="44.650196"
       x="274.49133"
       y="618.73199"
       ry="0" />
    <rect
       style="fill:#b3b3b3;fill-rule:evenodd;stroke:none;stroke-width:1px;stroke-linecap:butt;stroke-linejoin:miter;stroke-opacity:1"
       id="rect12617-8-9"
       width="234.41354"
       height="44.650196"
       x="307.97897"
       y="510.50232"
       ry="0" />
    <rect
       style="fill:#b3b3b3;fill-rule:evenodd;stroke:none;stroke-width:1px;stroke-linecap:butt;stroke-linejoin:miter;stroke-opacity:1"
       id="rect12617-23-9"
       width="239.99481"
       height="44.650196"
       x="302.39771"
       y="456.0719"
       ry="0" />
    <rect
       style="fill:#ffffff;fill-rule:evenodd;stroke:#ffffff;stroke-width:1.05963624px;stroke-linecap:butt;stroke-linejoin:miter;stroke-opacity:1"
       id="rect12688"
       width="53.876644"
       height="353.41833"
       x="205.25078"
       y="280.3118"
       ry="0" />
    <path
       style="fill:#666666"
       inkscape:connector-curvature="0"
       id="path7-5"
       d="m 375.96177,436.13552 -33.1192,-17.24373 11.22219,-35.71855 c 1.50596,-4.78958 0.27356,-10.12707 -3.42143,-13.82238 l -24.22241,-24.2217 c -3.69541,-3.6953 -9.03289,-4.92825 -13.82243,-3.42135 l -35.71858,11.22134 -17.24369,-33.11922 c -2.32706,-4.51561 -6.97957,-7.39061 -12.18023,-7.39061 l -34.35037,0 c -5.06351,0 -9.85305,2.875 -12.18021,7.39061 l -17.24371,33.11922 -35.71857,-11.22134 c -4.78954,-1.5069 -10.127,-0.27395 -13.68535,3.42135 l -24.3595,24.2217 c -3.69528,3.69531 -4.92738,9.0328 -3.4213,13.82238 l 11.22206,35.71855 -33.119203,17.24373 c -4.51557,2.32709 -7.38973,6.97968 -7.38973,12.18018 l 0,34.35034 c 0,5.06353 2.87416,9.85311 7.38973,12.18019 l 33.119203,17.24372 -11.22206,35.58157 c -1.50608,4.92657 -0.27357,10.26406 3.4213,13.82238 l 24.3595,24.35868 c 3.55835,3.6953 8.89581,4.92825 13.68535,3.42136 l 35.71857,-11.22122 17.24371,33.11923 c 2.32716,4.51548 7.1167,7.3906 12.18021,7.3906 l 34.35037,0 c 5.20066,0 9.85317,-2.87512 12.18023,-7.3906 l 17.24369,-33.11923 35.71858,11.22122 c 4.78954,1.50689 10.12702,0.27394 13.82243,-3.42136 l 24.22241,-24.35868 c 3.6954,-3.55832 4.92739,-8.89581 3.42143,-13.82238 l -11.22219,-35.58157 33.1192,-17.24372 c 4.51569,-2.32708 7.38986,-7.11666 7.38986,-12.18019 l 0,-34.35034 c 0,-5.2005 -2.87417,-9.85309 -7.38986,-12.18018 z m -145.61244,91.55427 c -34.35039,0 -62.26818,-27.91702 -62.26818,-62.26734 0,-34.21348 27.91779,-62.1305 62.26818,-62.1305 34.21356,0 62.13127,27.91702 62.13127,62.1305 0,34.35032 -27.91771,62.26734 -62.13127,62.26734 z"
       class="st0" />
    <rect
       style="fill:#ffffff;fill-rule:evenodd;stroke:none;stroke-width:1px;stroke-linecap:butt;stroke-linejoin:miter;stroke-opacity:1"
       id="rect3346"
       width="191.87805"
       height="154.18773"
       x="132.77277"
       y="371.36642" />
    <path
       style="fill:#800000"
       inkscape:connector-curvature="0"
       id="path7"
       d="m 376.12149,423.51239 -33.1192,-17.24373 11.22219,-35.71855 c 1.50596,-4.78958 0.27356,-10.12707 -3.42143,-13.82238 l -24.22241,-24.2217 c -3.69541,-3.6953 -9.03289,-4.92825 -13.82243,-3.42135 l -35.71858,11.22134 -17.24369,-33.11922 c -2.32706,-4.51561 -6.97957,-7.39061 -12.18023,-7.39061 l -34.35037,0 c -5.06351,0 -9.85305,2.875 -12.18021,7.39061 l -17.24371,33.11922 -35.71857,-11.22134 c -4.78954,-1.5069 -10.127,-0.27395 -13.68535,3.42135 l -24.3595,24.2217 c -3.69528,3.69531 -4.92738,9.0328 -3.4213,13.82238 l 11.22206,35.71855 -33.119206,17.24373 c -4.515572,2.32709 -7.389737,6.97968 -7.389737,12.18018 l 0,34.35034 c 0,5.06353 2.874165,9.85311 7.389737,12.18019 l 33.119206,17.24372 -11.22206,35.58157 c -1.50608,4.92657 -0.27357,10.26406 3.4213,13.82238 l 24.3595,24.35868 c 3.55835,3.6953 8.89581,4.92825 13.68535,3.42136 l 35.71857,-11.22122 17.24371,33.11923 c 2.32716,4.51548 7.1167,7.3906 12.18021,7.3906 l 34.35037,0 c 5.20066,0 9.85317,-2.87512 12.18023,-7.3906 l 17.24369,-33.11923 35.71858,11.22122 c 4.78954,1.50689 10.12702,0.27394 13.82243,-3.42136 l 24.22241,-24.35868 c 3.6954,-3.55832 4.92739,-8.89581 3.42143,-13.82238 l -11.22219,-35.58157 33.1192,-17.24372 c 4.51569,-2.32708 7.38986,-7.11666 7.38986,-12.18019 l 0,-34.35034 c 0,-5.2005 -2.87417,-9.85309 -7.38986,-12.18018 z m -145.61244,91.55427 c -34.35039,0 -62.26818,-27.91702 -62.26818,-62.26734 0,-34.21348 27.91779,-62.1305 62.26818,-62.1305 34.21356,0 62.13127,27.91702 62.13127,62.1305 0,34.35032 -27.91771,62.26734 -62.13127,62.26734 z"
       class="st0" />
  </g>
</svg>
